{"title":"[ShepardTDS] Freezing Dual Audio Uncensored [1080p 8-bit x265 HE","uid":13004245,"size":5723092131,"categoryP":"video","categoryS":"tv_shows","magnet":"?xt=urn:btih:6bf08fb2d73b1767fed9b09838363493e13a26e1&amp;dn=%5BShepardTDS%5D+Freezing+Dual+Audio+Uncensored+%5B1080p+8-bit+x265+HE&amp;tr=udp%3A%2F%2Ftracker.leechers-paradise.org%3A6969&amp;tr=udp%3A%2F%2Fzer0day.ch%3A1337&amp;tr=udp%3A%2F%2Fopen.demonii.com%3A1337&amp;tr=udp%3A%2F%2Ftracker.coppersurfer.tk%3A6969&amp;tr=udp%3A%2F%2Fexodus.desync.com%3A6969","seeders":0,"leechers":1,"uploader":"ShepardTDS","files":21,"time":1450213860,"description":"[url=http://extraimago.com/image/ppg][img]http://extraimago.com/images/2015/11/30/106164_front.md.jpg[/img][/url]\r\n\r\nConstant Quality encoding.\r\nVariable Bit rates\r\nED and OP included\r\nBlu-Ray Source\r\nAll 6 OVAs \r\n\r\n[url=http://extraimago.com/image/XVb][img]http://extraimago.com/images/2015/12/15/sample12eb9f.th.jpg[/img][/url]\r\n\r\n[url=http://extraimago.com/image/XV3][img]http://extraimago.com/images/2015/12/15/sample24146e.th.jpg[/img][/url]\r\n\r\nGeneral\r\n\r\nFormat : Matroska\r\nFile size : 338 MiB-520-MiB\r\nDuration : 23mn 42s\r\nOverall bit rate : 1 992 Kbps-3,069 Kbps\r\nEncoded date : UTC 2015-12-13 23:48:09\r\nWriting application : mkvmerge v8.5.2 ('Crosses') 32bit\r\nWriting library : libebml v1.3.3 + libmatroska v1.4.4\r\n\r\nVideo\r\nID : 1\r\nFormat : V_MPEGH/ISO/HEVC\r\nCodec ID : V_MPEGH/ISO/HEVC\r\nDuration : 23mn 42s\r\nBit rate : 1 568 Kbps-2,624 Kbps\r\nWidth : 1 920 pixels\r\nHeight : 1 080 pixels\r\nDisplay aspect ratio : 16:9\r\nFrame rate : 23.976 fps\r\nBits/(Pixel*Frame) : 0.032\r\nStream size : 266 MiB (79%)\r\n\r\nAudio #1\r\nID : 2\r\nFormat : AC-3\r\nFormat/Info : Audio Coding 3\r\nMode extension : CM (complete main)\r\nCodec ID : A_AC3\r\nDuration : 23mn 42s\r\nBit rate mode : Constant\r\nBit rate : 192 Kbps\r\nChannel(s) : 6 channels\r\nChannel positions : Front: L C R, Side: L R, LFE\r\nSampling rate : 48.0 KHz\r\nBit depth : 16 bits\r\nCompression mode : Lossy\r\nStream size : 32.6 MiB (10%)\r\nLanguage : English\r\n\r\nAudio #2\r\nID : 3\r\nFormat : AC-3\r\nFormat/Info : Audio Coding 3\r\nMode extension : CM (complete main)\r\nCodec ID : A_AC3\r\nDuration : 23mn 42s\r\nBit rate mode : Constant\r\nBit rate : 192 Kbps\r\nChannel(s) : 2 channels\r\nChannel positions : Front: L R\r\nSampling rate : 48.0 KHz\r\nBit depth : 16 bits\r\nCompression mode : Lossy\r\nStream size : 32.6 MiB (10%)\r\nLanguage : Japanese\r\n\r\nText #1\r\nID : 4\r\nFormat : PGS\r\nMuxing mode : zlib\r\nCodec ID : S_HDMV/PGS\r\nCodec ID/Info : The same subtitle format used on BDs/HD-DVDs\r\nLanguage : English\r\n\r\nText #2\r\nID : 5\r\nFormat : PGS\r\nMuxing mode : zlib\r\nCodec ID : S_HDMV/PGS\r\nCodec ID/Info : The same subtitle format used on BDs/HD-DVDs\r\nLanguage : English\r\n\r\nMenu\r\n00:00:00.000 : en:Chapter 1\r\n00:01:21.039 : en:Chapter 2\r\n00:02:51.129 : en:Chapter 3\r\n00:09:31.154 : en:Chapter 4\r\n00:21:56.106 : en:Chapter 5\r\n00:23:26.113 : en:Chapter 6","torrent":{"xt":"urn:btih:6bf08fb2d73b1767fed9b09838363493e13a26e1","amp;dn":"%5BShepardTDS%5D+Freezing+Dual+Audio+Uncensored+%5B1080p+8-bit+x265+HE","amp;tr":["udp%3A%2F%2Ftracker.leechers-paradise.org%3A6969","udp%3A%2F%2Fzer0day.ch%3A1337","udp%3A%2F%2Fopen.demonii.com%3A1337","udp%3A%2F%2Ftracker.coppersurfer.tk%3A6969","udp%3A%2F%2Fexodus.desync.com%3A6969"],"infoHash":"6bf08fb2d73b1767fed9b09838363493e13a26e1","infoHashBuffer":{"type":"Buffer","data":[107,240,143,178,215,59,23,103,254,217,176,152,56,54,52,147,225,58,38,225]},"announce":[],"urlList":[]}}